<svg xmlns="http://www.w3.org/2000/svg" version="1.1" xmlns:xlink="http://www.w3.org/1999/xlink" xmlns:svgjs="http://svgjs.dev/svgjs" width="128" height="128" viewBox="0 0 128 128"><g transform="matrix(0.5852272727272727,0,0,0.5852272727272727,26.620141536600677,12.760752631578946)"><svg viewBox="0 0 69 95" data-background-color="#000000" preserveAspectRatio="xMidYMid meet" height="176" width="128" xmlns="http://www.w3.org/2000/svg" xmlns:xlink="http://www.w3.org/1999/xlink"><g id="tight-bounds" transform="matrix(1,0,0,1,-0.06879542024260843,-0.24049999999999727)"><svg viewBox="0 0 69.1375908404852 95.481" height="95.481" width="69.1375908404852"><g><svg viewBox="0 0 69.1375908404852 95.481" height="95.481" width="69.1375908404852"><g><svg viewBox="0 0 69.1375908404852 95.481" height="95.481" width="69.1375908404852"><g id="textblocktransform"><svg viewBox="0 0 69.1375908404852 95.481" height="95.481" width="69.1375908404852" id="textblock"><g><svg viewBox="0 0 69.1375908404852 95.481" height="95.481" width="69.1375908404852"><g><svg viewBox="0 0 69.1375908404852 95.481" height="95.481" width="69.1375908404852"><g><svg xmlns="http://www.w3.org/2000/svg" xmlns:xlink="http://www.w3.org/1999/xlink" version="1.1" x="0" y="0" viewBox="17.261724004338927 4.787 65.47727599566107 90.426" enable-background="new 0 0 100 100" xml:space="preserve" height="95.481" width="69.1375908404852" class="icon-icon-0" data-fill-palette-color="accent" id="icon-0"></svg></g></svg></g></svg></g></svg></g></svg></g></svg></g><defs></defs><mask id="c9d19cc0-1c70-46bb-b9e9-f2a48a3d6e75"><g id="SvgjsG9045"><svg viewBox="0 0 69.1375908404852 95.481" height="95.481" width="69.1375908404852"><g><svg viewBox="0 0 69.1375908404852 95.481" height="95.481" width="69.1375908404852"><g><svg viewBox="0 0 69.1375908404852 95.481" height="95.481" width="69.1375908404852"><g id="SvgjsG9044"><svg viewBox="0 0 69.1375908404852 95.481" height="95.481" width="69.1375908404852" id="SvgjsSvg9043"><g><svg viewBox="0 0 69.1375908404852 95.481" height="95.481" width="69.1375908404852"><g><svg viewBox="0 0 69.1375908404852 95.481" height="95.481" width="69.1375908404852"><g><svg xmlns="http://www.w3.org/2000/svg" xmlns:xlink="http://www.w3.org/1999/xlink" version="1.1" x="0" y="0" viewBox="17.261724004338927 4.787 65.47727599566107 90.426" enable-background="new 0 0 100 100" xml:space="preserve" height="95.481" width="69.1375908404852" class="icon-icon-0" data-fill-palette-color="accent" id="SvgjsSvg9042"><g fill="white"><path d="M82.509 4.787L24.082 4.823c-0.12 0-0.223 0.006-0.343 0.021-3.607 0.438-6.426 3.531-6.426 7.251-0.002 25.268-0.111 50.558-0.005 75.821v0.046c0 4.253 3.093 7.251 7.336 7.251h57.828c0.126 0 0.229-0.104 0.229-0.229v-1.305c0-0.127-0.104-0.23-0.229-0.23H26.734c-2.014 0-3.847-0.814-5.186-2.13h60.506c0.315 0 0.571-0.256 0.571-0.571 0-0.316-0.256-0.572-0.571-0.572H20.596c-0.706-1.042-1.154-2.27-1.25-3.593h5.13V85.44H19.35c0.107-1.326 0.568-2.556 1.287-3.594h3.839v-1.143h-2.866c1.333-1.281 3.141-2.072 5.125-2.072v2.072h-0.003v1.143h0.003v3.594h-0.003v1.142h0.003v2.431l3.504-1.19 3.516 1.19V78.632h48.755c0.126 0 0.229-0.104 0.229-0.228v-2.951V5.016C82.737 4.89 82.635 4.787 82.509 4.787zM71.13 34.86H54.188v33.092h-5.42V34.86H31.826v-5.421h16.942v-12.31h5.42v12.31H71.13V34.86z" fill="white"></path><path d="M82.055 85.44H35.983v1.142h46.072c0.315 0 0.571-0.256 0.571-0.57C82.626 85.696 82.37 85.44 82.055 85.44z" fill="white"></path><path d="M82.055 80.704H35.983v1.143h46.072c0.315 0 0.571-0.256 0.571-0.571C82.626 80.959 82.37 80.704 82.055 80.704z" fill="white"></path></g></svg></g></svg></g></svg></g></svg></g></svg></g></svg></g><defs><mask></mask></defs></svg><rect width="69.1375908404852" height="95.481" fill="black" stroke="none" visibility="hidden"></rect></g></mask><linearGradient x1="0" x2="1" y1="0.578" y2="0.595" id="18b19bf5-af8e-433e-a460-4561821ea66b"><stop stop-color="#6ee2f5" offset="0"></stop><stop stop-color="#6454f0" offset="1"></stop></linearGradient><rect width="69.1375908404852" height="95.481" fill="url(#18b19bf5-af8e-433e-a460-4561821ea66b)" mask="url(#c9d19cc0-1c70-46bb-b9e9-f2a48a3d6e75)" data-fill-palette-color="accent"></rect></svg><rect width="69.1375908404852" height="95.481" fill="none" stroke="none" visibility="hidden"></rect></g></svg></g></svg>